# xmcd
#
# Track frame offsets:
#	150
#	29256
#	71296
#	100580
#	137185
#	164591
#	193446
#	229411
#	253835
#
# Disc length: 3657 seconds
#
# Revision: 4
# Processed by: cddbd v1.5.2PL0 Copyright (c) Steve Scherf et al.
# Submitted via: audiograbber 1.83.01
#
DISCID=820e4709
DTITLE=Rick Wakeman - The Natural World Trilogy CD2
DYEAR=2002
DGENRE=Progressive Rock
TTITLE0=The Spider Crab
TTITLE1=Sea Green Turtles
TTITLE2=The Corel Reef
TTITLE3=Sea Urchins
TTITLE4=Angel Falls
TTITLE5=The Minerva Tarraces
TTITLE6=Mono Lake
TTITLE7=The Sun Dew
TTITLE8=The "Queen of Gems"
EXTD=
EXTT0=
EXTT1=
EXTT2=
EXTT3=
EXTT4=
EXTT5=
EXTT6=
EXTT7=
EXTT8=
PLAYORDER=
